G04 #@! TF.FileFunction,Other,ECO2*
%FSLAX46Y46*%
G04 Gerber Fmt 4.6, Leading zero omitted, Abs format (unit mm)*
G04 Created by KiCad (PCBNEW 4.0.5) date 07/08/17 18:46:26*
%MOMM*%
%LPD*%
G01*
G04 APERTURE LIST*
%ADD10C,0.100000*%
%ADD11C,0.200000*%
G04 APERTURE END LIST*
D10*
D11*
X154000000Y-111342857D02*
X154000000Y-112200000D01*
X154057142Y-112371429D01*
X154171428Y-112485714D01*
X154342857Y-112542857D01*
X154457142Y-112542857D01*
X153542856Y-111342857D02*
X152799999Y-111342857D01*
X153199999Y-111800000D01*
X153028571Y-111800000D01*
X152914285Y-111857143D01*
X152857142Y-111914286D01*
X152799999Y-112028571D01*
X152799999Y-112314286D01*
X152857142Y-112428571D01*
X152914285Y-112485714D01*
X153028571Y-112542857D01*
X153371428Y-112542857D01*
X153485714Y-112485714D01*
X153542856Y-112428571D01*
X148700000Y-111342857D02*
X148700000Y-112200000D01*
X148757142Y-112371429D01*
X148871428Y-112485714D01*
X149042857Y-112542857D01*
X149157142Y-112542857D01*
X147499999Y-112542857D02*
X148185714Y-112542857D01*
X147842856Y-112542857D02*
X147842856Y-111342857D01*
X147957142Y-111514286D01*
X148071428Y-111628571D01*
X148185714Y-111685714D01*
X148600000Y-104000000D02*
X148600000Y-104600000D01*
X148600000Y-106400000D02*
X148600000Y-105800000D01*
X150900000Y-106400000D02*
X148600000Y-106400000D01*
X150900000Y-104000000D02*
X150900000Y-106400000D01*
X148600000Y-104000000D02*
X150900000Y-104000000D01*
X151414286Y-89342857D02*
X151414286Y-90314286D01*
X151357143Y-90428571D01*
X151300000Y-90485714D01*
X151185714Y-90542857D01*
X150957143Y-90542857D01*
X150842857Y-90485714D01*
X150785714Y-90428571D01*
X150728571Y-90314286D01*
X150728571Y-89342857D01*
X149528571Y-90542857D02*
X150214286Y-90542857D01*
X149871428Y-90542857D02*
X149871428Y-89342857D01*
X149985714Y-89514286D01*
X150100000Y-89628571D01*
X150214286Y-89685714D01*
X156499999Y-93828571D02*
X156557142Y-93885714D01*
X156728571Y-93942857D01*
X156842857Y-93942857D01*
X157014285Y-93885714D01*
X157128571Y-93771429D01*
X157185714Y-93657143D01*
X157242857Y-93428571D01*
X157242857Y-93257143D01*
X157185714Y-93028571D01*
X157128571Y-92914286D01*
X157014285Y-92800000D01*
X156842857Y-92742857D01*
X156728571Y-92742857D01*
X156557142Y-92800000D01*
X156499999Y-92857143D01*
X155357142Y-93942857D02*
X156042857Y-93942857D01*
X155699999Y-93942857D02*
X155699999Y-92742857D01*
X155814285Y-92914286D01*
X155928571Y-93028571D01*
X156042857Y-93085714D01*
X156400000Y-87700000D02*
X157200000Y-87700000D01*
X156800000Y-88100000D02*
X156800000Y-87300000D01*
X157200000Y-88400000D02*
X155600000Y-88400000D01*
X157200000Y-92400000D02*
X157200000Y-88400000D01*
X155600000Y-92400000D02*
X157200000Y-92400000D01*
X155600000Y-92300000D02*
X155600000Y-92400000D01*
X155600000Y-88400000D02*
X155600000Y-92300000D01*
X144200000Y-99800000D02*
X144200000Y-97000000D01*
X147000000Y-99800000D02*
X144200000Y-99800000D01*
X147000000Y-97000000D02*
X147000000Y-99800000D01*
X144200000Y-97000000D02*
X147000000Y-97000000D01*
X148409902Y-94109901D02*
G75*
G03X148409902Y-94109901I-509902J0D01*
G01*
X152800000Y-86300000D02*
X148200000Y-86300000D01*
X152800000Y-93600000D02*
X152800000Y-86300000D01*
X149100000Y-93600000D02*
X152800000Y-93600000D01*
X148200000Y-92700000D02*
X149100000Y-93600000D01*
X148200000Y-86300000D02*
X148200000Y-92700000D01*
M02*
