M48
;DRILL file {KiCad 4.0.5} date 08/13/17 21:25:01
;FORMAT={2:4/ absolute / inch / keep zeros}
FMAT,2
INCH,TZ
T1C0.016
T2C0.039
T3C0.043
T4C0.087
%
G90
G05
M72
T1
X057165Y-034528
X057480Y-043543
X058701Y-036535
X058819Y-034409
X059606Y-036142
X059786Y-036592
X060039Y-035039
X060039Y-036299
X061417Y-034567
X061417Y-043543
T2
X058110Y-040433
X058110Y-041417
X058937Y-041417
X059961Y-041417
X060787Y-040433
X060787Y-041417
T3
X057291Y-038748
X057831Y-037630
X058370Y-038748
X058909Y-037630
X059449Y-038748
X059988Y-037630
X060528Y-038748
X061067Y-037630
X061606Y-038748
T4
X059449Y-042913
T0
M30
