M48
INCH,TZ
T10C0.016
T11C0.039
T12C0.043
T13C0.087
T14C0.126
%
T10
X057165Y-34528
X057480Y-43543
X058701Y-36535
X058819Y-34409
X059606Y-36142
X059786Y-36592
X060000Y-39528
X060039Y-35039
X060039Y-36299
X061417Y-34567
X061417Y-43543
T11
X058110Y-40433
X058110Y-41417
X058937Y-41417
X059961Y-41417
X060787Y-40433
X060787Y-41417
T12
X057291Y-38748
X057831Y-37630
X058370Y-38748
X058909Y-37630
X059449Y-38748
X059988Y-37630
X060528Y-38748
X061067Y-37630
X061606Y-38748
T13
X059449Y-42913
T14
M30

