G04 #@! TF.FileFunction,Other,ECO1*
%FSLAX46Y46*%
G04 Gerber Fmt 4.6, Leading zero omitted, Abs format (unit mm)*
G04 Created by KiCad (PCBNEW 4.0.5) date 07/07/17 12:51:05*
%MOMM*%
%LPD*%
G01*
G04 APERTURE LIST*
%ADD10C,0.100000*%
%ADD11C,0.300000*%
G04 APERTURE END LIST*
D10*
D11*
X149392858Y-90678571D02*
X149392858Y-89178571D01*
X149964286Y-89178571D01*
X150107144Y-89250000D01*
X150178572Y-89321429D01*
X150250001Y-89464286D01*
X150250001Y-89678571D01*
X150178572Y-89821429D01*
X150107144Y-89892857D01*
X149964286Y-89964286D01*
X149392858Y-89964286D01*
X151678572Y-90678571D02*
X150821429Y-90678571D01*
X151250001Y-90678571D02*
X151250001Y-89178571D01*
X151107144Y-89392857D01*
X150964286Y-89535714D01*
X150821429Y-89607143D01*
X149892858Y-112678571D02*
X149892858Y-111178571D01*
X150464286Y-111178571D01*
X150607144Y-111250000D01*
X150678572Y-111321429D01*
X150750001Y-111464286D01*
X150750001Y-111678571D01*
X150678572Y-111821429D01*
X150607144Y-111892857D01*
X150464286Y-111964286D01*
X149892858Y-111964286D01*
X151321429Y-111321429D02*
X151392858Y-111250000D01*
X151535715Y-111178571D01*
X151892858Y-111178571D01*
X152035715Y-111250000D01*
X152107144Y-111321429D01*
X152178572Y-111464286D01*
X152178572Y-111607143D01*
X152107144Y-111821429D01*
X151250001Y-112678571D01*
X152178572Y-112678571D01*
M02*
