G04 #@! TF.FileFunction,Copper,L2,Bot,Signal*
%FSLAX46Y46*%
G04 Gerber Fmt 4.6, Leading zero omitted, Abs format (unit mm)*
G04 Created by KiCad (PCBNEW 4.0.5) date 07/07/17 12:51:05*
%MOMM*%
%LPD*%
G01*
G04 APERTURE LIST*
%ADD10C,0.100000*%
%ADD11R,0.750000X1.200000*%
%ADD12C,3.000000*%
%ADD13R,2.000000X3.000000*%
%ADD14C,1.500000*%
%ADD15C,4.500000*%
%ADD16C,1.700000*%
%ADD17R,1.750000X0.450000*%
%ADD18R,1.500000X1.500000*%
%ADD19C,0.600000*%
%ADD20C,0.300000*%
%ADD21C,0.500000*%
%ADD22C,0.200000*%
G04 APERTURE END LIST*
D10*
D11*
X156400000Y-89450000D03*
X156400000Y-91350000D03*
D12*
X151000000Y-109000000D03*
D13*
X157000000Y-108200000D03*
X145000000Y-108200000D03*
D14*
X149700000Y-105200000D03*
X152300000Y-105200000D03*
X154400000Y-105200000D03*
X147600000Y-105200000D03*
X154400000Y-102700000D03*
X147600000Y-102700000D03*
D15*
X138500000Y-97000000D03*
X163500000Y-97000000D03*
D16*
X145520000Y-98420000D03*
X148260000Y-98420000D03*
X151000000Y-98420000D03*
X153740000Y-98420000D03*
X156480000Y-98420000D03*
X146890000Y-95580000D03*
X149630000Y-95580000D03*
X152370000Y-95580000D03*
X155110000Y-95580000D03*
D17*
X146900000Y-92925000D03*
X146900000Y-92275000D03*
X146900000Y-91625000D03*
X146900000Y-90975000D03*
X146900000Y-90325000D03*
X146900000Y-89675000D03*
X146900000Y-89025000D03*
X146900000Y-88375000D03*
X146900000Y-87725000D03*
X146900000Y-87075000D03*
X154100000Y-87075000D03*
X154100000Y-87725000D03*
X154100000Y-88375000D03*
X154100000Y-89025000D03*
X154100000Y-89675000D03*
X154100000Y-90325000D03*
X154100000Y-90975000D03*
X154100000Y-91625000D03*
X154100000Y-92275000D03*
X154100000Y-92925000D03*
D18*
X146000000Y-112000000D03*
X156000000Y-112000000D03*
D19*
X151400000Y-91800000D03*
X149100000Y-92800000D03*
X152400000Y-100400000D03*
X151855660Y-92944340D03*
X152500000Y-92200000D03*
X145200000Y-87700000D03*
X149400000Y-87400000D03*
X156000000Y-110600000D03*
X156000000Y-87800000D03*
X146000000Y-110600000D03*
X152500000Y-89000000D03*
D20*
X151400000Y-91800000D02*
X152700000Y-90500000D01*
X149630000Y-95580000D02*
X149630000Y-93330000D01*
X149630000Y-93330000D02*
X149100000Y-92800000D01*
X148075000Y-90975000D02*
X149100000Y-92000000D01*
X149100000Y-92000000D02*
X149100000Y-92800000D01*
X156400000Y-89450000D02*
X155725000Y-89450000D01*
X155725000Y-89450000D02*
X155500000Y-89675000D01*
X154100000Y-89675000D02*
X155500000Y-89675000D01*
X154100000Y-90325000D02*
X155275000Y-90325000D01*
X155275000Y-90325000D02*
X155500000Y-90100000D01*
X155500000Y-90100000D02*
X155500000Y-89675000D01*
X152875000Y-90325000D02*
X152700000Y-90500000D01*
X154100000Y-89675000D02*
X152925000Y-89675000D01*
X152925000Y-89675000D02*
X152700000Y-89900000D01*
X152700000Y-89900000D02*
X152700000Y-90500000D01*
X154100000Y-89675000D02*
X154100000Y-90325000D01*
X154100000Y-90325000D02*
X152875000Y-90325000D01*
X146900000Y-90975000D02*
X148075000Y-90975000D01*
D21*
X152400000Y-100400000D02*
X147600000Y-105200000D01*
X145000000Y-108200000D02*
X150200000Y-108200000D01*
X150200000Y-108200000D02*
X151000000Y-109000000D01*
X157000000Y-108200000D02*
X151800000Y-108200000D01*
X151800000Y-108200000D02*
X151000000Y-109000000D01*
D20*
X150692081Y-93592081D02*
X151477919Y-94377919D01*
X151477919Y-94377919D02*
X152370000Y-94377919D01*
X148317081Y-90325000D02*
X150692081Y-92700000D01*
X150692081Y-92700000D02*
X150692081Y-93592081D01*
D22*
X156400000Y-92600000D02*
X155400010Y-93599990D01*
X155400010Y-93599990D02*
X153147929Y-93599990D01*
X153147929Y-93599990D02*
X152370000Y-94377919D01*
X156400000Y-91350000D02*
X156400000Y-92600000D01*
D20*
X146900000Y-89675000D02*
X148075000Y-89675000D01*
X148075000Y-89675000D02*
X148317081Y-89917081D01*
X148317081Y-89917081D02*
X148317081Y-90325000D01*
X146900000Y-89675000D02*
X146900000Y-90325000D01*
X146900000Y-90325000D02*
X148317081Y-90325000D01*
X152370000Y-94377919D02*
X152370000Y-95580000D01*
D22*
X154100000Y-92925000D02*
X151875000Y-92925000D01*
X151875000Y-92925000D02*
X151855660Y-92944340D01*
X145500000Y-96200000D02*
X146100000Y-96800000D01*
X146100000Y-96800000D02*
X146640000Y-96800000D01*
X146640000Y-96800000D02*
X146840000Y-97000000D01*
X145500000Y-92600000D02*
X145500000Y-96200000D01*
X146840000Y-97000000D02*
X148260000Y-98420000D01*
X145825000Y-92275000D02*
X145500000Y-92600000D01*
X146900000Y-92275000D02*
X145825000Y-92275000D01*
X154100000Y-92275000D02*
X152575000Y-92275000D01*
X152575000Y-92275000D02*
X152500000Y-92200000D01*
X148700000Y-97000000D02*
X152320000Y-97000000D01*
X152320000Y-97000000D02*
X153740000Y-98420000D01*
X148300000Y-96600000D02*
X148700000Y-97000000D01*
X148300000Y-93250000D02*
X148300000Y-96600000D01*
X146900000Y-92925000D02*
X147975000Y-92925000D01*
X147975000Y-92925000D02*
X148300000Y-93250000D01*
X156175000Y-87075000D02*
X157200000Y-88100000D01*
X157200000Y-92400000D02*
X155600000Y-94000000D01*
X157200000Y-88100000D02*
X157200000Y-92065002D01*
X157200000Y-92065002D02*
X157200000Y-92400000D01*
X153700000Y-96300000D02*
X154970001Y-97570001D01*
X154970001Y-97570001D02*
X155630001Y-97570001D01*
X155630001Y-97570001D02*
X156480000Y-98420000D01*
X153700000Y-94700000D02*
X153700000Y-96300000D01*
X154400000Y-94000000D02*
X153700000Y-94700000D01*
X155600000Y-94000000D02*
X154400000Y-94000000D01*
X154100000Y-87075000D02*
X156175000Y-87075000D01*
X146900000Y-87725000D02*
X145225000Y-87725000D01*
X145225000Y-87725000D02*
X145200000Y-87700000D01*
X146900000Y-87075000D02*
X149075000Y-87075000D01*
X149075000Y-87075000D02*
X149400000Y-87400000D01*
X146900000Y-87075000D02*
X147550000Y-87075000D01*
X146900000Y-88375000D02*
X145825000Y-88375000D01*
X145825000Y-88375000D02*
X144300000Y-89900000D01*
X146000000Y-104200000D02*
X146000000Y-106159998D01*
X144300000Y-89900000D02*
X144300000Y-102500000D01*
X144300000Y-102500000D02*
X146000000Y-104200000D01*
X146000000Y-106159998D02*
X146440002Y-106600000D01*
X146440002Y-106600000D02*
X148300000Y-106600000D01*
X148300000Y-106600000D02*
X149700000Y-105200000D01*
X147600000Y-102700000D02*
X147600000Y-101639340D01*
X146474312Y-97200010D02*
X145934311Y-97200010D01*
X147600000Y-101639340D02*
X146900000Y-100939340D01*
X146900000Y-97625698D02*
X146474312Y-97200010D01*
X146900000Y-100939340D02*
X146900000Y-97625698D01*
X145934311Y-97200010D02*
X145099992Y-96365690D01*
X145099992Y-96365690D02*
X145099992Y-89750008D01*
X145099992Y-89750008D02*
X145825000Y-89025000D01*
X145825000Y-89025000D02*
X146900000Y-89025000D01*
X156000000Y-110600000D02*
X156000000Y-112000000D01*
X154100000Y-88375000D02*
X155425000Y-88375000D01*
X155425000Y-88375000D02*
X156000000Y-87800000D01*
X146000000Y-110600000D02*
X146000000Y-112000000D01*
X154100000Y-89025000D02*
X152525000Y-89025000D01*
X152525000Y-89025000D02*
X152500000Y-89000000D01*
M02*
