G04 This is an RS-274x file exported by *
G04 gerbv version 2.6A *
G04 More information is available about gerbv at *
G04 http://gerbv.geda-project.org/ *
G04 --End of header info--*
%MOIN*%
%FSLAX34Y34*%
%IPPOS*%
G04 --Define apertures--*
%ADD10C,0.0039*%
%ADD11C,0.0059*%
%ADD12C,0.1181*%
%ADD13C,0.0591*%
%ADD14C,0.1772*%
%ADD15C,0.0669*%
%ADD16C,0.0236*%
%ADD17C,0.0118*%
%ADD18C,0.0197*%
%ADD19C,0.0079*%
G04 --Start main section--*
G54D11*
G01X0058052Y-044010D02*
G01X0058052Y-044404D01*
G01X0058052Y-044029D02*
G01X0058090Y-044010D01*
G01X0058090Y-044010D02*
G01X0058165Y-044010D01*
G01X0058165Y-044010D02*
G01X0058202Y-044029D01*
G01X0058202Y-044029D02*
G01X0058221Y-044048D01*
G01X0058221Y-044048D02*
G01X0058240Y-044085D01*
G01X0058240Y-044085D02*
G01X0058240Y-044198D01*
G01X0058240Y-044198D02*
G01X0058221Y-044235D01*
G01X0058221Y-044235D02*
G01X0058202Y-044254D01*
G01X0058202Y-044254D02*
G01X0058165Y-044273D01*
G01X0058165Y-044273D02*
G01X0058090Y-044273D01*
G01X0058090Y-044273D02*
G01X0058052Y-044254D01*
G01X0058390Y-044254D02*
G01X0058427Y-044273D01*
G01X0058427Y-044273D02*
G01X0058502Y-044273D01*
G01X0058502Y-044273D02*
G01X0058540Y-044254D01*
G01X0058540Y-044254D02*
G01X0058558Y-044216D01*
G01X0058558Y-044216D02*
G01X0058558Y-044198D01*
G01X0058558Y-044198D02*
G01X0058540Y-044160D01*
G01X0058540Y-044160D02*
G01X0058502Y-044141D01*
G01X0058502Y-044141D02*
G01X0058446Y-044141D01*
G01X0058446Y-044141D02*
G01X0058408Y-044123D01*
G01X0058408Y-044123D02*
G01X0058390Y-044085D01*
G01X0058390Y-044085D02*
G01X0058390Y-044066D01*
G01X0058390Y-044066D02*
G01X0058408Y-044029D01*
G01X0058408Y-044029D02*
G01X0058446Y-044010D01*
G01X0058446Y-044010D02*
G01X0058502Y-044010D01*
G01X0058502Y-044010D02*
G01X0058540Y-044029D01*
G01X0058708Y-043916D02*
G01X0058727Y-043898D01*
G01X0058727Y-043898D02*
G01X0058765Y-043879D01*
G01X0058765Y-043879D02*
G01X0058858Y-043879D01*
G01X0058858Y-043879D02*
G01X0058896Y-043898D01*
G01X0058896Y-043898D02*
G01X0058915Y-043916D01*
G01X0058915Y-043916D02*
G01X0058933Y-043954D01*
G01X0058933Y-043954D02*
G01X0058933Y-043991D01*
G01X0058933Y-043991D02*
G01X0058915Y-044048D01*
G01X0058915Y-044048D02*
G01X0058690Y-044273D01*
G01X0058690Y-044273D02*
G01X0058933Y-044273D01*
G01X0059102Y-044273D02*
G01X0059102Y-044010D01*
G01X0059102Y-044048D02*
G01X0059121Y-044029D01*
G01X0059121Y-044029D02*
G01X0059158Y-044010D01*
G01X0059158Y-044010D02*
G01X0059214Y-044010D01*
G01X0059214Y-044010D02*
G01X0059252Y-044029D01*
G01X0059252Y-044029D02*
G01X0059271Y-044066D01*
G01X0059271Y-044066D02*
G01X0059271Y-044273D01*
G01X0059271Y-044066D02*
G01X0059289Y-044029D01*
G01X0059289Y-044029D02*
G01X0059327Y-044010D01*
G01X0059327Y-044010D02*
G01X0059383Y-044010D01*
G01X0059383Y-044010D02*
G01X0059421Y-044029D01*
G01X0059421Y-044029D02*
G01X0059439Y-044066D01*
G01X0059439Y-044066D02*
G01X0059439Y-044273D01*
G01X0059871Y-043879D02*
G01X0060096Y-043879D01*
G01X0059983Y-044273D02*
G01X0059983Y-043879D01*
G01X0060302Y-043879D02*
G01X0060377Y-043879D01*
G01X0060377Y-043879D02*
G01X0060414Y-043898D01*
G01X0060414Y-043898D02*
G01X0060452Y-043935D01*
G01X0060452Y-043935D02*
G01X0060471Y-044010D01*
G01X0060471Y-044010D02*
G01X0060471Y-044141D01*
G01X0060471Y-044141D02*
G01X0060452Y-044216D01*
G01X0060452Y-044216D02*
G01X0060414Y-044254D01*
G01X0060414Y-044254D02*
G01X0060377Y-044273D01*
G01X0060377Y-044273D02*
G01X0060302Y-044273D01*
G01X0060302Y-044273D02*
G01X0060264Y-044254D01*
G01X0060264Y-044254D02*
G01X0060227Y-044216D01*
G01X0060227Y-044216D02*
G01X0060208Y-044141D01*
G01X0060208Y-044141D02*
G01X0060208Y-044010D01*
G01X0060208Y-044010D02*
G01X0060227Y-043935D01*
G01X0060227Y-043935D02*
G01X0060264Y-043898D01*
G01X0060264Y-043898D02*
G01X0060302Y-043879D01*
G01X0060639Y-044273D02*
G01X0060639Y-043879D01*
G01X0060639Y-043879D02*
G01X0060789Y-043879D01*
G01X0060789Y-043879D02*
G01X0060827Y-043898D01*
G01X0060827Y-043898D02*
G01X0060846Y-043916D01*
G01X0060846Y-043916D02*
G01X0060864Y-043954D01*
G01X0060864Y-043954D02*
G01X0060864Y-044010D01*
G01X0060864Y-044010D02*
G01X0060846Y-044048D01*
G01X0060846Y-044048D02*
G01X0060827Y-044066D01*
G01X0060827Y-044066D02*
G01X0060789Y-044085D01*
G01X0060789Y-044085D02*
G01X0060639Y-044085D01*
G54D12*
G01X0059449Y-042913D03*
G54D13*
G01X0058937Y-041417D03*
G01X0059961Y-041417D03*
G01X0060787Y-041417D03*
G01X0058110Y-041417D03*
G01X0060787Y-040433D03*
G01X0058110Y-040433D03*
G54D15*
G01X0057291Y-038748D03*
G01X0058370Y-038748D03*
G01X0059449Y-038748D03*
G01X0060528Y-038748D03*
G01X0061606Y-038748D03*
G01X0057831Y-037630D03*
G01X0058909Y-037630D03*
G01X0059988Y-037630D03*
G01X0061067Y-037630D03*
G54D16*
G01X0059606Y-036142D03*
G01X0058701Y-036535D03*
G01X0060000Y-039528D03*
G01X0059786Y-036592D03*
G01X0060039Y-036299D03*
G01X0057165Y-034528D03*
G01X0058819Y-034409D03*
G01X0061417Y-043543D03*
G01X0061417Y-034567D03*
G01X0057480Y-043543D03*
G01X0060039Y-035039D03*
G54D17*
G01X0059314Y-036434D02*
G01X0059606Y-036142D01*
G01X0058701Y-036535D02*
G01X0059213Y-036535D01*
G01X0059213Y-036535D02*
G01X0059314Y-036434D01*
G01X0060787Y-041417D02*
G01X0058909Y-039539D01*
G01X0058909Y-039539D02*
G01X0058909Y-037630D01*
G54D18*
G01X0059988Y-037630D02*
G01X0059988Y-039516D01*
G01X0059988Y-039516D02*
G01X0060000Y-039528D01*
G01X0058110Y-041417D02*
G01X0058110Y-042047D01*
G01X0058110Y-042047D02*
G01X0058976Y-042913D01*
G01X0058976Y-042913D02*
G01X0059449Y-042913D01*
G54D17*
G01X0060000Y-037642D02*
G01X0059988Y-037630D01*
G54D19*
G01X0058228Y-038189D02*
G01X0057850Y-038189D01*
G01X0057850Y-038189D02*
G01X0057291Y-038748D01*
G01X0058386Y-038031D02*
G01X0058228Y-038189D01*
G01X0058386Y-037283D02*
G01X0058386Y-038031D01*
G01X0058937Y-036732D02*
G01X0058386Y-037283D01*
G01X0059479Y-036732D02*
G01X0058937Y-036732D01*
G01X0059786Y-036592D02*
G01X0059619Y-036592D01*
G01X0059619Y-036592D02*
G01X0059479Y-036732D01*
G01X0059606Y-037008D02*
G01X0059449Y-037165D01*
G01X0059449Y-037165D02*
G01X0059449Y-038748D01*
G01X0059882Y-037008D02*
G01X0059606Y-037008D01*
G01X0060039Y-036850D02*
G01X0059882Y-037008D01*
G01X0060039Y-036299D02*
G01X0060039Y-036850D01*
G01X0057165Y-034528D02*
G01X0057165Y-036965D01*
G01X0057165Y-036965D02*
G01X0057831Y-037630D01*
G01X0058819Y-034409D02*
G01X0061067Y-036657D01*
G01X0061067Y-036657D02*
G01X0061067Y-037630D01*
G01X0061417Y-039606D02*
G01X0061417Y-043543D01*
G01X0061063Y-039252D02*
G01X0061417Y-039606D01*
G01X0061063Y-038386D02*
G01X0061063Y-039252D01*
G01X0061260Y-038189D02*
G01X0061063Y-038386D01*
G01X0061457Y-038189D02*
G01X0061260Y-038189D01*
G01X0061654Y-037992D02*
G01X0061457Y-038189D01*
G01X0061654Y-034803D02*
G01X0061654Y-037992D01*
G01X0061417Y-034567D02*
G01X0061654Y-034803D01*
G01X0056811Y-040354D02*
G01X0057480Y-041024D01*
G01X0057480Y-041024D02*
G01X0057480Y-043543D01*
G01X0056811Y-038386D02*
G01X0056811Y-040354D01*
G01X0056839Y-038358D02*
G01X0056811Y-038386D01*
G01X0056929Y-038268D02*
G01X0056839Y-038358D01*
G01X0056929Y-035157D02*
G01X0056929Y-038268D01*
G01X0056929Y-035157D02*
G01X0056929Y-035157D01*
G01X0057165Y-033858D02*
G01X0056929Y-034094D01*
G01X0056929Y-034094D02*
G01X0056929Y-035157D01*
G01X0058858Y-033858D02*
G01X0057165Y-033858D01*
G01X0060039Y-035039D02*
G01X0058858Y-033858D01*
M02*
