G04 #@! TF.FileFunction,Copper,L1,Top,Signal*
%FSLAX46Y46*%
G04 Gerber Fmt 4.6, Leading zero omitted, Abs format (unit mm)*
G04 Created by KiCad (PCBNEW 4.0.5) date 07/07/17 12:51:05*
%MOMM*%
%LPD*%
G01*
G04 APERTURE LIST*
%ADD10C,0.100000*%
%ADD11C,3.000000*%
%ADD12C,1.500000*%
%ADD13C,4.500000*%
%ADD14C,1.700000*%
%ADD15C,0.600000*%
%ADD16C,0.300000*%
%ADD17C,0.500000*%
%ADD18C,0.200000*%
G04 APERTURE END LIST*
D10*
D11*
X151000000Y-109000000D03*
D12*
X149700000Y-105200000D03*
X152300000Y-105200000D03*
X154400000Y-105200000D03*
X147600000Y-105200000D03*
X154400000Y-102700000D03*
X147600000Y-102700000D03*
D13*
X138500000Y-97000000D03*
X163500000Y-97000000D03*
D14*
X145520000Y-98420000D03*
X148260000Y-98420000D03*
X151000000Y-98420000D03*
X153740000Y-98420000D03*
X156480000Y-98420000D03*
X146890000Y-95580000D03*
X149630000Y-95580000D03*
X152370000Y-95580000D03*
X155110000Y-95580000D03*
D15*
X151400000Y-91800000D03*
X149100000Y-92800000D03*
X152400000Y-100400000D03*
X151855660Y-92944340D03*
X152500000Y-92200000D03*
X145200000Y-87700000D03*
X149400000Y-87400000D03*
X156000000Y-110600000D03*
X156000000Y-87800000D03*
X146000000Y-110600000D03*
X152500000Y-89000000D03*
D16*
X150656421Y-92543579D02*
X151400000Y-91800000D01*
X149100000Y-92800000D02*
X150400000Y-92800000D01*
X150400000Y-92800000D02*
X150656421Y-92543579D01*
X154400000Y-105200000D02*
X149630000Y-100430000D01*
X149630000Y-100430000D02*
X149630000Y-95580000D01*
D17*
X152370000Y-95580000D02*
X152370000Y-100370000D01*
X152370000Y-100370000D02*
X152400000Y-100400000D01*
X147600000Y-105200000D02*
X147600000Y-106800000D01*
X147600000Y-106800000D02*
X149800000Y-109000000D01*
X149800000Y-109000000D02*
X151000000Y-109000000D01*
D16*
X152400000Y-95610000D02*
X152370000Y-95580000D01*
D18*
X147900000Y-97000000D02*
X146940000Y-97000000D01*
X146940000Y-97000000D02*
X145520000Y-98420000D01*
X148300000Y-96600000D02*
X147900000Y-97000000D01*
X148300000Y-94700000D02*
X148300000Y-96600000D01*
X149700000Y-93300000D02*
X148300000Y-94700000D01*
X151075736Y-93300000D02*
X149700000Y-93300000D01*
X151855660Y-92944340D02*
X151431396Y-92944340D01*
X151431396Y-92944340D02*
X151075736Y-93300000D01*
X151400000Y-94000000D02*
X151000000Y-94400000D01*
X151000000Y-94400000D02*
X151000000Y-98420000D01*
X152100000Y-94000000D02*
X151400000Y-94000000D01*
X152500000Y-93600000D02*
X152100000Y-94000000D01*
X152500000Y-92200000D02*
X152500000Y-93600000D01*
X145200000Y-87700000D02*
X145200000Y-93890000D01*
X145200000Y-93890000D02*
X146890000Y-95580000D01*
X149400000Y-87400000D02*
X155110000Y-93110000D01*
X155110000Y-93110000D02*
X155110000Y-95580000D01*
X156000000Y-100600000D02*
X156000000Y-110600000D01*
X155100000Y-99700000D02*
X156000000Y-100600000D01*
X155100000Y-97500000D02*
X155100000Y-99700000D01*
X155600000Y-97000000D02*
X155100000Y-97500000D01*
X156100000Y-97000000D02*
X155600000Y-97000000D01*
X156600000Y-96500000D02*
X156100000Y-97000000D01*
X156600000Y-88400000D02*
X156600000Y-96500000D01*
X156000000Y-87800000D02*
X156600000Y-88400000D01*
X144300000Y-102500000D02*
X146000000Y-104200000D01*
X146000000Y-104200000D02*
X146000000Y-110600000D01*
X144300000Y-97500000D02*
X144300000Y-102500000D01*
X144369999Y-97430001D02*
X144300000Y-97500000D01*
X144600000Y-97200000D02*
X144369999Y-97430001D01*
X144600000Y-89300000D02*
X144600000Y-97200000D01*
X144599999Y-89299999D02*
X144600000Y-89300000D01*
X145200000Y-86000000D02*
X144599999Y-86600001D01*
X144599999Y-86600001D02*
X144599999Y-89299999D01*
X149500000Y-86000000D02*
X145200000Y-86000000D01*
X152500000Y-89000000D02*
X149500000Y-86000000D01*
M02*
