G04 #@! TF.FileFunction,Soldermask,Bot*
%FSLAX46Y46*%
G04 Gerber Fmt 4.6, Leading zero omitted, Abs format (unit mm)*
G04 Created by KiCad (PCBNEW 4.0.5) date 07/07/17 12:51:05*
%MOMM*%
%LPD*%
G01*
G04 APERTURE LIST*
%ADD10C,0.100000*%
%ADD11C,0.150000*%
%ADD12R,1.150000X1.600000*%
%ADD13C,3.400000*%
%ADD14C,1.900000*%
%ADD15C,4.900000*%
%ADD16C,2.100000*%
%ADD17R,2.150000X0.850000*%
%ADD18R,1.900000X1.900000*%
G04 APERTURE END LIST*
D10*
D11*
X144195000Y-99840000D02*
X144195000Y-97000000D01*
X146965000Y-99840000D02*
X144195000Y-99840000D01*
X146965000Y-97000000D02*
X146965000Y-99840000D01*
X144195000Y-97000000D02*
X146965000Y-97000000D01*
D12*
X156400000Y-89450000D03*
X156400000Y-91350000D03*
D13*
X151000000Y-109000000D03*
D14*
X149700000Y-105200000D03*
X152300000Y-105200000D03*
X154400000Y-105200000D03*
X147600000Y-105200000D03*
X154400000Y-102700000D03*
X147600000Y-102700000D03*
D15*
X138500000Y-97000000D03*
X163500000Y-97000000D03*
D16*
X145520000Y-98420000D03*
X148260000Y-98420000D03*
X151000000Y-98420000D03*
X153740000Y-98420000D03*
X156480000Y-98420000D03*
X146890000Y-95580000D03*
X149630000Y-95580000D03*
X152370000Y-95580000D03*
X155110000Y-95580000D03*
D17*
X146900000Y-92925000D03*
X146900000Y-92275000D03*
X146900000Y-91625000D03*
X146900000Y-90975000D03*
X146900000Y-90325000D03*
X146900000Y-89675000D03*
X146900000Y-89025000D03*
X146900000Y-88375000D03*
X146900000Y-87725000D03*
X146900000Y-87075000D03*
X154100000Y-87075000D03*
X154100000Y-87725000D03*
X154100000Y-88375000D03*
X154100000Y-89025000D03*
X154100000Y-89675000D03*
X154100000Y-90325000D03*
X154100000Y-90975000D03*
X154100000Y-91625000D03*
X154100000Y-92275000D03*
X154100000Y-92925000D03*
D18*
X146000000Y-112000000D03*
X156000000Y-112000000D03*
M02*
