G04 This is an RS-274x file exported by *
G04 gerbv version 2.6A *
G04 More information is available about gerbv at *
G04 http://gerbv.geda-project.org/ *
G04 --End of header info--*
%MOIN*%
%FSLAX34Y34*%
%IPPOS*%
G04 --Define apertures--*
%ADD10C,0.0039*%
%ADD11R,0.0295X0.0472*%
%ADD12R,0.0689X0.0177*%
%ADD13R,0.0591X0.0591*%
%ADD14C,0.1772*%
%ADD15C,0.0669*%
%ADD16C,0.1181*%
%ADD17R,0.0787X0.1181*%
%ADD18C,0.0591*%
%ADD19C,0.0236*%
%ADD20C,0.0118*%
%ADD21C,0.0197*%
%ADD22C,0.0079*%
G04 --Start main section--*
G54D11*
G01X0061575Y-035217D03*
G01X0061575Y-035965D03*
G54D12*
G01X0057835Y-036585D03*
G01X0057835Y-036329D03*
G01X0057835Y-036073D03*
G01X0057835Y-035817D03*
G01X0057835Y-035561D03*
G01X0057835Y-035305D03*
G01X0057835Y-035049D03*
G01X0057835Y-034793D03*
G01X0057835Y-034537D03*
G01X0057835Y-034281D03*
G01X0060669Y-034281D03*
G01X0060669Y-034537D03*
G01X0060669Y-034793D03*
G01X0060669Y-035049D03*
G01X0060669Y-035305D03*
G01X0060669Y-035561D03*
G01X0060669Y-035817D03*
G01X0060669Y-036073D03*
G01X0060669Y-036329D03*
G01X0060669Y-036585D03*
G54D13*
G01X0057480Y-044094D03*
G01X0061417Y-044094D03*
G54D15*
G01X0057291Y-038748D03*
G01X0058370Y-038748D03*
G01X0059449Y-038748D03*
G01X0060528Y-038748D03*
G01X0061606Y-038748D03*
G01X0057831Y-037630D03*
G01X0058909Y-037630D03*
G01X0059988Y-037630D03*
G01X0061067Y-037630D03*
G54D16*
G01X0059449Y-042913D03*
G54D17*
G01X0061811Y-042598D03*
G01X0057087Y-042598D03*
G54D18*
G01X0058937Y-041417D03*
G01X0059961Y-041417D03*
G01X0060787Y-041417D03*
G01X0058110Y-041417D03*
G01X0060787Y-040433D03*
G01X0058110Y-040433D03*
G54D19*
G01X0059606Y-036142D03*
G01X0058701Y-036535D03*
G01X0059786Y-036592D03*
G01X0060039Y-036299D03*
G01X0057165Y-034528D03*
G01X0058819Y-034409D03*
G01X0061417Y-043543D03*
G01X0061417Y-034567D03*
G01X0057480Y-043543D03*
G01X0060039Y-035039D03*
G54D20*
G01X0059606Y-036142D02*
G01X0060118Y-035630D01*
G01X0058909Y-037630D02*
G01X0058909Y-036744D01*
G01X0058909Y-036744D02*
G01X0058701Y-036535D01*
G01X0058297Y-035817D02*
G01X0058701Y-036220D01*
G01X0058701Y-036220D02*
G01X0058701Y-036535D01*
G01X0061575Y-035217D02*
G01X0061309Y-035217D01*
G01X0061309Y-035217D02*
G01X0061220Y-035305D01*
G01X0060669Y-035305D02*
G01X0061220Y-035305D01*
G01X0060669Y-035561D02*
G01X0061132Y-035561D01*
G01X0061132Y-035561D02*
G01X0061220Y-035472D01*
G01X0061220Y-035472D02*
G01X0061220Y-035305D01*
G01X0060187Y-035561D02*
G01X0060118Y-035630D01*
G01X0060669Y-035305D02*
G01X0060207Y-035305D01*
G01X0060207Y-035305D02*
G01X0060118Y-035394D01*
G01X0060118Y-035394D02*
G01X0060118Y-035630D01*
G01X0060669Y-035305D02*
G01X0060669Y-035561D01*
G01X0060669Y-035561D02*
G01X0060187Y-035561D01*
G01X0057835Y-035817D02*
G01X0058297Y-035817D01*
G54D21*
G01X0057087Y-042598D02*
G01X0059134Y-042598D01*
G01X0059134Y-042598D02*
G01X0059449Y-042913D01*
G01X0061811Y-042598D02*
G01X0059764Y-042598D01*
G01X0059764Y-042598D02*
G01X0059449Y-042913D01*
G54D20*
G01X0059328Y-036847D02*
G01X0059637Y-037157D01*
G01X0059637Y-037157D02*
G01X0059988Y-037157D01*
G01X0058393Y-035561D02*
G01X0059328Y-036496D01*
G01X0059328Y-036496D02*
G01X0059328Y-036847D01*
G54D22*
G01X0061575Y-036457D02*
G01X0061181Y-036850D01*
G01X0061181Y-036850D02*
G01X0060294Y-036850D01*
G01X0060294Y-036850D02*
G01X0059988Y-037157D01*
G01X0061575Y-035965D02*
G01X0061575Y-036457D01*
G54D20*
G01X0057835Y-035305D02*
G01X0058297Y-035305D01*
G01X0058297Y-035305D02*
G01X0058393Y-035400D01*
G01X0058393Y-035400D02*
G01X0058393Y-035561D01*
G01X0057835Y-035305D02*
G01X0057835Y-035561D01*
G01X0057835Y-035561D02*
G01X0058393Y-035561D01*
G01X0059988Y-037157D02*
G01X0059988Y-037630D01*
G54D22*
G01X0060669Y-036585D02*
G01X0059793Y-036585D01*
G01X0059793Y-036585D02*
G01X0059786Y-036592D01*
G01X0057283Y-037874D02*
G01X0057520Y-038110D01*
G01X0057520Y-038110D02*
G01X0057732Y-038110D01*
G01X0057732Y-038110D02*
G01X0057811Y-038189D01*
G01X0057283Y-036457D02*
G01X0057283Y-037874D01*
G01X0057811Y-038189D02*
G01X0058370Y-038748D01*
G01X0057411Y-036329D02*
G01X0057283Y-036457D01*
G01X0057835Y-036329D02*
G01X0057411Y-036329D01*
G01X0060669Y-036329D02*
G01X0060069Y-036329D01*
G01X0060069Y-036329D02*
G01X0060039Y-036299D01*
G01X0058543Y-038189D02*
G01X0059969Y-038189D01*
G01X0059969Y-038189D02*
G01X0060528Y-038748D01*
G01X0058386Y-038031D02*
G01X0058543Y-038189D01*
G01X0058386Y-036713D02*
G01X0058386Y-038031D01*
G01X0057835Y-036585D02*
G01X0058258Y-036585D01*
G01X0058258Y-036585D02*
G01X0058386Y-036713D01*
G01X0061486Y-034281D02*
G01X0061890Y-034685D01*
G01X0061890Y-036378D02*
G01X0061260Y-037008D01*
G01X0061890Y-034685D02*
G01X0061890Y-036246D01*
G01X0061890Y-036246D02*
G01X0061890Y-036378D01*
G01X0060512Y-037913D02*
G01X0061012Y-038413D01*
G01X0061012Y-038413D02*
G01X0061272Y-038413D01*
G01X0061272Y-038413D02*
G01X0061606Y-038748D01*
G01X0060512Y-037283D02*
G01X0060512Y-037913D01*
G01X0060787Y-037008D02*
G01X0060512Y-037283D01*
G01X0061260Y-037008D02*
G01X0060787Y-037008D01*
G01X0060669Y-034281D02*
G01X0061486Y-034281D01*
G01X0057835Y-034537D02*
G01X0057175Y-034537D01*
G01X0057175Y-034537D02*
G01X0057165Y-034528D01*
G01X0057835Y-034281D02*
G01X0058691Y-034281D01*
G01X0058691Y-034281D02*
G01X0058819Y-034409D01*
G01X0057835Y-034281D02*
G01X0058091Y-034281D01*
G01X0056811Y-035394D02*
G01X0056811Y-039075D01*
G01X0059961Y-041417D02*
G01X0059449Y-040906D01*
G01X0059449Y-040906D02*
G01X0057343Y-040906D01*
G01X0057343Y-040906D02*
G01X0057185Y-040748D01*
G01X0057185Y-040748D02*
G01X0057185Y-039449D01*
G01X0057185Y-039449D02*
G01X0056811Y-039075D01*
G01X0057835Y-034793D02*
G01X0057411Y-034793D01*
G01X0057411Y-034793D02*
G01X0056811Y-035394D01*
G01X0058228Y-039724D02*
G01X0060079Y-039724D01*
G01X0060079Y-039724D02*
G01X0060787Y-040433D01*
G01X0057835Y-039331D02*
G01X0058228Y-039724D01*
G01X0057835Y-038435D02*
G01X0057835Y-039331D01*
G01X0057667Y-038268D02*
G01X0057454Y-038268D01*
G01X0057835Y-038435D02*
G01X0057667Y-038268D01*
G01X0057454Y-038268D02*
G01X0057126Y-037939D01*
G01X0057126Y-037939D02*
G01X0057126Y-035335D01*
G01X0057126Y-035335D02*
G01X0057411Y-035049D01*
G01X0057411Y-035049D02*
G01X0057835Y-035049D01*
G01X0061417Y-043543D02*
G01X0061417Y-044094D01*
G01X0060669Y-034793D02*
G01X0061191Y-034793D01*
G01X0061191Y-034793D02*
G01X0061417Y-034567D01*
G01X0057480Y-043543D02*
G01X0057480Y-044094D01*
G01X0060669Y-035049D02*
G01X0060049Y-035049D01*
G01X0060049Y-035049D02*
G01X0060039Y-035039D01*
M02*
